# xmcd CD database file
#
# Track frame offsets:
#	150
#	22585
#	43342
#	64932
#	85192
#	101890
#	122337
#	143395
#	167440
#	190010
#	214855
#	237032
#	260580
#	282712
#	305077
#
# Disc length: 4392 seconds
#
# Revision: 8
# Processed by: cddbd v1.5.2PL0 Copyright (c) Steve Scherf et al.
# Submitted via: CDex 1.51
#
DISCID=ce11260f
DTITLE=?? - 16th Summer Breeze Disc 2
DYEAR=1994
DGENRE=New Age
TTITLE0=VOICE OF MY HEART
TTITLE1=???????
TTITLE2=??????????
TTITLE3=DANCE WITH NOSTALGIA
TTITLE4=MORNING HIGHWAY
TTITLE5=BOOGIE WOOGIE MAINLAND
TTITLE6=??????????
TTITLE7=GIRLS IN SUMMER
TTITLE8=GROOVE A?GO?GO
TTITLE9=BACK TO THE BASIC
TTITLE10=SWEET EMOTION
TTITLE11=?????????
TTITLE12=???????
TTITLE13=MOVE ME
TTITLE14=??????????
EXTD=YEAR: 1994
EXTT0=
EXTT1=
EXTT2=
EXTT3=
EXTT4=
EXTT5=
EXTT6=
EXTT7=
EXTT8=
EXTT9=
EXTT10=
EXTT11=
EXTT12=
EXTT13=
EXTT14=
PLAYORDER=
